<svg width="185" height="220" viewBox="0 0 185 220" fill="none" xmlns="http://www.w3.org/2000/svg">
<g filter="url(#filter0_d_129_8201)">
<g clip-path="url(#clip0_129_8201)">
<rect x="10.2656" y="8" width="164.5" height="200" rx="10" fill="white"/>
<path d="M31.1445 48.5H38.0195V51H40.8125V48.5H42.6094V46.1367H40.8125V36.8594H37.1211L31.1445 46.1758V48.5ZM34.1133 46.1367V46.0195L37.9219 40.082H38.0586V46.1367H34.1133ZM44.6734 51H54.7906V48.5781H48.7555V48.5L50.9039 46.4102C53.8141 43.7734 54.5953 42.4551 54.5953 40.8438C54.5953 38.3926 52.5836 36.6641 49.5562 36.6641C46.5777 36.6641 44.527 38.4316 44.5367 41.1953H47.3297C47.3199 39.8379 48.1891 38.998 49.5172 39.0078C50.816 38.998 51.7633 39.7793 51.7633 41.0391C51.7633 42.1621 51.0504 42.9434 49.732 44.2031L44.6539 48.8711L44.6734 51ZM62.2258 51.1953C65.4094 51.1953 67.5773 49.1543 67.5773 46.293C67.5773 43.5781 65.6437 41.6348 63.0461 41.6445C61.8059 41.6348 60.7316 42.1426 60.2141 42.8359H60.0969L60.4875 39.2617H66.7766V36.8594H58.0656L57.3039 45.0039H59.9602C60.3801 44.2129 61.1223 43.8125 62.1867 43.8125C63.6711 43.8223 64.7355 44.8672 64.7258 46.3711C64.7355 47.8457 63.6906 48.8809 62.2258 48.8711C60.9953 48.8809 59.9895 48.1191 59.9211 47.0156H57.0695C57.1184 49.457 59.2766 51.1953 62.2258 51.1953ZM70.9891 51.1758C71.8582 51.1758 72.6102 50.4434 72.6102 49.5352C72.6102 48.6367 71.8582 47.9043 70.9891 47.9141C70.0711 47.9043 69.3289 48.6367 69.3484 49.5352C69.3289 50.4434 70.0711 51.1758 70.9891 51.1758ZM80.143 51.1953C83.3266 51.1953 85.4945 49.1543 85.4945 46.293C85.4945 43.5781 83.5609 41.6348 80.9633 41.6445C79.723 41.6348 78.6488 42.1426 78.1312 42.8359H78.0141L78.4047 39.2617H84.6937V36.8594H75.9828L75.2211 45.0039H77.8773C78.2973 44.2129 79.0395 43.8125 80.1039 43.8125C81.5883 43.8223 82.6527 44.8672 82.643 46.3711C82.6527 47.8457 81.6078 48.8809 80.143 48.8711C78.9125 48.8809 77.9066 48.1191 77.8383 47.0156H74.9867C75.0355 49.457 77.1937 51.1953 80.143 51.1953ZM87.6562 51H90.5469V47.6016L91.3574 46.6836L94.2773 51H97.6758L93.5059 44.9844L97.4609 40.3945H94.1406L90.7031 44.457H90.5469V36.8594H87.6562V51Z" fill="#4C4E64" fill-opacity="0.87"/>
<path d="M107.984 47.4824H109.693V44.9258H112.25V43.2168H109.693V40.6602H107.984V43.2168H105.428V44.9258H107.984V47.4824ZM114.004 49H121.086V47.3047H116.862V47.25L118.366 45.7871C120.403 43.9414 120.95 43.0186 120.95 41.8906C120.95 40.1748 119.541 38.9648 117.422 38.9648C115.337 38.9648 113.902 40.2021 113.909 42.1367H115.864C115.857 41.1865 116.465 40.5986 117.395 40.6055C118.304 40.5986 118.967 41.1455 118.967 42.0273C118.967 42.8135 118.468 43.3604 117.545 44.2422L113.991 47.5098L114.004 49ZM126.313 49.1367C128.549 49.1367 130.155 47.9199 130.141 46.2246C130.155 44.9873 129.355 44.1055 127.899 43.9277V43.8457C129.007 43.6475 129.779 42.8613 129.772 41.7539C129.779 40.1885 128.405 38.9648 126.341 38.9648C124.31 38.9648 122.779 40.1475 122.745 41.8496H124.714C124.748 41.0908 125.466 40.5986 126.341 40.6055C127.216 40.5986 127.797 41.1182 127.79 41.877C127.797 42.6562 127.113 43.1895 126.136 43.1895H125.22V44.707H126.136C127.298 44.7139 128.015 45.2812 128.009 46.0879C128.015 46.8877 127.311 47.4346 126.327 47.4414C125.37 47.4346 124.652 46.9492 124.618 46.2109H122.54C122.581 47.9404 124.139 49.1367 126.313 49.1367ZM134.288 44.0508C135.751 44.0508 136.565 42.9844 136.571 41.4121C136.565 39.8467 135.772 38.7598 134.288 38.7598C132.846 38.7598 132.005 39.8467 132.005 41.4121C132.005 42.9707 132.805 44.0508 134.288 44.0508ZM133.4 41.4121C133.406 40.5713 133.707 39.9834 134.288 39.9766C134.904 39.9766 135.17 40.5576 135.177 41.4121C135.17 42.2666 134.876 42.8271 134.288 42.834C133.714 42.8271 133.406 42.2666 133.4 41.4121ZM133.427 49H134.958L141.767 39.1016H140.236L133.427 49ZM138.691 46.6895C138.691 48.248 139.49 49.3281 140.96 49.3281C142.437 49.3281 143.25 48.2617 143.257 46.6895C143.25 45.124 142.457 44.0439 140.96 44.0371C139.531 44.0439 138.691 45.124 138.691 46.6895ZM140.085 46.6895C140.092 45.8486 140.386 45.2607 140.96 45.2676C141.582 45.2539 141.856 45.835 141.862 46.6895C141.856 47.5439 141.562 48.1113 140.96 48.1113C140.4 48.1113 140.092 47.5439 140.085 46.6895Z" fill="#72E128"/>
<path d="M40.4512 63.8164H38.7012V76.2305H40.4512V70.0234H42.2148V68.5879H40.4512V63.8164ZM30.498 72.7441L31.4824 74.084C35.666 72.0264 37.1152 68.8066 37.1289 65.0879H31.209V66.5098H35.3584C35.0303 69.2852 33.4443 71.2676 30.498 72.7441ZM54.2594 69.6953H49.4332V68.6289H52.9605V67.2617H46.0016V65.7168H52.8922V64.3633H44.2652V68.6289H47.7242V69.6953H42.8844V71.0625H54.2594V69.6953ZM44.1832 73.9883C44.1832 75.4443 45.8238 76.2715 48.5445 76.2715C51.2447 76.2715 52.8648 75.4443 52.8785 73.9883C52.8648 72.5117 51.2447 71.6914 48.5445 71.6914C45.8238 71.6914 44.1832 72.5117 44.1832 73.9883ZM45.9605 73.9883C45.9537 73.3457 46.8219 73.0176 48.5445 73.0176C50.233 73.0176 51.1217 73.3457 51.1285 73.9883C51.1217 74.6377 50.233 74.9453 48.5445 74.9453C46.8219 74.9453 45.9537 74.6377 45.9605 73.9883ZM66.509 69.3262H55.1203V70.5977H57.9367V71.3223H56.4191V72.5254H63.4191V73.1543H56.4328V76.1758H65.5109V74.9863H58.1691V74.2617H65.1418V71.3223H63.7062V70.5977H66.509V69.3262ZM56.5148 65.2109H63.3781V65.8398H56.5422V68.752H65.3469V67.5625H58.2785V66.9473H65.1281V64.0352H56.5148V65.2109ZM59.673 71.3223V70.5977H61.9562V71.3223H59.673ZM82.2445 65.6348H80.6312V63.8164H78.8812V71.7188H80.6312V69.7363H82.2445V68.3145H80.6312V67.043H82.2445V65.6348ZM70.7602 66.3594H78.143V65.0059H75.3266V63.748H73.5902V65.0059H70.7602V66.3594ZM71.3617 69.0254C71.3617 70.3652 72.6264 71.2539 74.4516 71.2539C76.2631 71.2539 77.5141 70.3652 77.5141 69.0254C77.5141 67.6992 76.2631 66.79 74.4516 66.7832C72.6195 66.79 71.3617 67.6992 71.3617 69.0254ZM72.3598 74.0566C72.3461 75.4238 73.9525 76.2646 76.5707 76.2578C79.1273 76.2646 80.7611 75.4238 80.768 74.0566C80.7611 72.6553 79.1273 71.835 76.5707 71.8281C73.9525 71.835 72.3461 72.6553 72.3598 74.0566ZM73.0707 69.0254C73.0639 68.4033 73.6176 68.0615 74.4516 68.0547C75.2924 68.0615 75.8598 68.4033 75.8598 69.0254C75.8598 69.6406 75.2924 69.9619 74.4516 69.9551C73.6176 69.9619 73.0639 69.6406 73.0707 69.0254ZM74.0824 74.0566C74.0756 73.4346 74.9369 73.1611 76.5707 73.1543C78.1566 73.1611 79.018 73.4346 79.018 74.0566C79.018 74.6377 78.1566 74.959 76.5707 74.959C74.9369 74.959 74.0756 74.6377 74.0824 74.0566ZM87.5488 65.7715V64.4727H85.7988V65.6074C85.7852 67.3232 84.8965 68.9775 82.8184 69.668L83.7617 71.0352C85.1836 70.5566 86.1475 69.5723 86.6875 68.3213C87.2207 69.4082 88.1436 70.2559 89.4629 70.6934L90.3926 69.3398C88.4238 68.7314 87.542 67.2822 87.5488 65.7715ZM84.541 73.8516C84.5342 75.376 86.1816 76.2646 88.8066 76.2578C91.3838 76.2646 92.9971 75.376 93.0039 73.8516C92.9971 72.3408 91.3838 71.4453 88.8066 71.4453C86.1816 71.4453 84.5342 72.3408 84.541 73.8516ZM86.291 73.8516C86.2773 73.1748 87.1729 72.8125 88.8066 72.8125C90.4199 72.8125 91.2812 73.1748 91.2812 73.8516C91.2812 74.5557 90.4199 74.8906 88.8066 74.8906C87.1729 74.8906 86.2773 74.5557 86.291 73.8516ZM91.1309 71.1992H92.8809V68.1777H94.5625V66.7285H92.8809V63.8164H91.1309V71.1992Z" fill="#4C4E64" fill-opacity="0.68"/>
<line x1="29.8984" y1="95" x2="29.8984" y2="188" stroke="#4C4E64" stroke-opacity="0.12" stroke-dasharray="6 6"/>
<line x1="53.7246" y1="95" x2="53.7246" y2="188" stroke="#4C4E64" stroke-opacity="0.12" stroke-dasharray="6 6"/>
<line x1="77.5508" y1="95" x2="77.5508" y2="188" stroke="#4C4E64" stroke-opacity="0.12" stroke-dasharray="6 6"/>
<line x1="101.379" y1="95" x2="101.379" y2="188" stroke="#4C4E64" stroke-opacity="0.12" stroke-dasharray="6 6"/>
<line x1="125.205" y1="95" x2="125.205" y2="188" stroke="#4C4E64" stroke-opacity="0.12" stroke-dasharray="6 6"/>
<line x1="149.031" y1="95" x2="149.031" y2="188" stroke="#4C4E64" stroke-opacity="0.12" stroke-dasharray="6 6"/>
<path d="M29.3984 185.943L53.6833 150.494L77.5099 178.217L102.711 131.86L125.621 159.583L148.99 103.228" stroke="#26C6F9" stroke-width="3" stroke-linecap="round"/>
<circle cx="148.633" cy="105" r="5.5" fill="white" stroke="#26C6F9" stroke-width="3"/>
</g>
</g>
<defs>
<filter id="filter0_d_129_8201" x="0.265625" y="0" width="184.5" height="220" filterUnits="userSpaceOnUse" color-interpolation-filters="sRGB">
<feFlood flood-opacity="0" result="BackgroundImageFix"/>
<feColorMatrix in="SourceAlpha" type="matrix" values="0 0 0 0 0 0 0 0 0 0 0 0 0 0 0 0 0 0 127 0" result="hardAlpha"/>
<feOffset dy="2"/>
<feGaussianBlur stdDeviation="5"/>
<feColorMatrix type="matrix" values="0 0 0 0 0.298039 0 0 0 0 0.305882 0 0 0 0 0.392157 0 0 0 0.22 0"/>
<feBlend mode="normal" in2="BackgroundImageFix" result="effect1_dropShadow_129_8201"/>
<feBlend mode="normal" in="SourceGraphic" in2="effect1_dropShadow_129_8201" result="shape"/>
</filter>
<clipPath id="clip0_129_8201">
<rect x="10.2656" y="8" width="164.5" height="200" rx="10" fill="white"/>
</clipPath>
</defs>
</svg>
