<svg width="190" height="220" viewBox="0 0 190 220" fill="none" xmlns="http://www.w3.org/2000/svg">
<g filter="url(#filter0_d_129_8321)">
<g clip-path="url(#clip0_129_8321)">
<rect x="10.998" y="8" width="168.667" height="200" rx="10" fill="white"/>
<path d="M32.1113 51H42.2285V48.5781H36.1934V48.5L38.3418 46.4102C41.252 43.7734 42.0332 42.4551 42.0332 40.8438C42.0332 38.3926 40.0215 36.6641 36.9941 36.6641C34.0156 36.6641 31.9648 38.4316 31.9746 41.1953H34.7676C34.7578 39.8379 35.627 38.998 36.9551 39.0078C38.2539 38.998 39.2012 39.7793 39.2012 41.0391C39.2012 42.1621 38.4883 42.9434 37.1699 44.2031L32.0918 48.8711L32.1113 51ZM43.9215 48.5H50.7965V51H53.5895V48.5H55.3863V46.1367H53.5895V36.8594H49.898L43.9215 46.1758V48.5ZM46.8902 46.1367V46.0195L50.6988 40.082H50.8355V46.1367H46.8902ZM58.8762 51.1758C59.7453 51.1758 60.4973 50.4434 60.4973 49.5352C60.4973 48.6367 59.7453 47.9043 58.8762 47.9141C57.9582 47.9043 57.216 48.6367 57.2355 49.5352C57.216 50.4434 57.9582 51.1758 58.8762 51.1758ZM67.8348 51.1953C71.0281 51.2051 73.1961 49.1445 73.1863 46.2734C73.1961 43.6074 71.3016 41.7031 68.7527 41.7031C67.1902 41.7031 65.7938 42.4355 65.1395 43.6953H65.0027C65.0223 40.9121 66.0281 39.1836 67.952 39.1836C69.0945 39.1836 69.9051 39.7988 70.1395 40.7852H73.0301C72.7469 38.4609 70.7938 36.6641 67.952 36.6641C64.4168 36.6641 62.1414 39.4863 62.1316 44.2617C62.1219 49.4375 64.9148 51.1855 67.8348 51.1953ZM65.2957 46.3516C65.3152 44.9746 66.409 43.8418 67.8543 43.832C69.2898 43.8418 70.3348 44.9355 70.3348 46.3516C70.3348 47.7773 69.2703 48.8809 67.8152 48.8711C66.3699 48.8809 65.3152 47.7383 65.2957 46.3516ZM75.3871 51H78.2777V47.6016L79.0883 46.6836L82.0082 51H85.4066L81.2367 44.9844L85.1918 40.3945H81.8715L78.434 44.457H78.2777V36.8594H75.3871V51Z" fill="#4C4E64" fill-opacity="0.87"/>
<path d="M93.7168 47.4824H95.4258V44.9258H97.9824V43.2168H95.4258V40.6602H93.7168V43.2168H91.1602V44.9258H93.7168V47.4824ZM104.289 39.1016H102.348L99.9008 40.6602V42.4785L102.17 41.0566H102.225V49H104.289V39.1016ZM110.405 49.1367C112.661 49.1367 114.288 47.9473 114.288 46.334C114.288 45.0898 113.317 44.0781 112.114 43.8867V43.8184C113.153 43.6133 113.912 42.7178 113.919 41.6309C113.912 40.0928 112.429 38.9648 110.405 38.9648C108.382 38.9648 106.898 40.0928 106.905 41.6309C106.898 42.7178 107.637 43.6133 108.71 43.8184V43.8867C107.479 44.0781 106.522 45.0898 106.522 46.334C106.522 47.9473 108.142 49.1367 110.405 49.1367ZM108.669 46.1289C108.662 45.2676 109.4 44.6455 110.405 44.6387C111.41 44.6455 112.148 45.2744 112.141 46.1289C112.148 46.9766 111.451 47.5713 110.405 47.5645C109.359 47.5713 108.662 46.9766 108.669 46.1289ZM108.915 41.8359C108.908 41.0635 109.516 40.5234 110.405 40.5234C111.287 40.5234 111.902 41.0635 111.909 41.8359C111.902 42.6289 111.273 43.1826 110.405 43.1895C109.53 43.1826 108.908 42.6289 108.915 41.8359ZM118.394 44.0508C119.857 44.0508 120.67 42.9844 120.677 41.4121C120.67 39.8467 119.877 38.7598 118.394 38.7598C116.951 38.7598 116.111 39.8467 116.111 41.4121C116.111 42.9707 116.91 44.0508 118.394 44.0508ZM117.505 41.4121C117.512 40.5713 117.813 39.9834 118.394 39.9766C119.009 39.9766 119.276 40.5576 119.282 41.4121C119.276 42.2666 118.982 42.8271 118.394 42.834C117.82 42.8271 117.512 42.2666 117.505 41.4121ZM117.532 49H119.064L125.872 39.1016H124.341L117.532 49ZM122.796 46.6895C122.796 48.248 123.596 49.3281 125.066 49.3281C126.542 49.3281 127.356 48.2617 127.362 46.6895C127.356 45.124 126.563 44.0439 125.066 44.0371C123.637 44.0439 122.796 45.124 122.796 46.6895ZM124.191 46.6895C124.197 45.8486 124.491 45.2607 125.066 45.2676C125.688 45.2539 125.961 45.835 125.968 46.6895C125.961 47.5439 125.667 48.1113 125.066 48.1113C124.505 48.1113 124.197 47.5439 124.191 46.6895Z" fill="#72E128"/>
<path d="M35.3457 66.0312V64.5684H33.6504V66.0312C33.6504 67.4189 32.9463 68.9502 31.1895 69.7227L32.1328 71.0625C33.2949 70.5771 34.0742 69.6816 34.5254 68.6084C34.9697 69.5244 35.7012 70.2627 36.7676 70.666L37.6973 69.3398C36.043 68.7041 35.3457 67.3779 35.3457 66.0312ZM33.5 73.9336C33.4932 75.376 35.168 76.2646 37.8066 76.2578C40.4316 76.2646 42.1133 75.376 42.127 73.9336C42.1133 72.4775 40.4316 71.6025 37.8066 71.6094C35.168 71.6025 33.4932 72.4775 33.5 73.9336ZM35.25 73.9336C35.2363 73.2568 36.1729 72.9082 37.8066 72.9082C39.4268 72.9082 40.3633 73.2568 40.3633 73.9336C40.3633 74.6035 39.4268 74.9453 37.8066 74.9453C36.1729 74.9453 35.2363 74.6035 35.25 73.9336ZM37.7383 71.0488H39.3652V68.2734H40.4043V71.4316H42.0586V63.8301H40.4043V66.8652H39.3652V64.0488H37.7383V71.0488ZM48.2105 65.9492V64.582H46.4605V65.9355C46.4469 67.6309 45.5377 69.2988 43.4117 69.9551L44.3824 71.3359C45.818 70.8438 46.8092 69.8662 47.3629 68.6221C47.9029 69.7568 48.8463 70.6455 50.2066 71.1035L51.1227 69.7363C49.1061 69.0869 48.2037 67.542 48.2105 65.9492ZM45.4078 76.0391H53.9527V74.6445H47.1852V72.0332H45.4078V76.0391ZM51.7379 72.9355H53.4879V68.8887H55.1695V67.4121H53.4879V63.8164H51.7379V72.9355ZM60.5695 65.5117V64.459H58.8059V65.5938C58.799 67.3301 57.883 68.998 55.757 69.6816L56.673 71.0762C58.1701 70.5703 59.175 69.5518 59.7219 68.2529C60.2482 69.374 61.1574 70.2285 62.4973 70.6934L63.4133 69.3262C61.4172 68.7109 60.5627 67.1729 60.5695 65.5117ZM57.8215 73.8516C57.8215 75.3896 59.4484 76.2646 62.1008 76.2578C64.76 76.2646 66.3869 75.3896 66.3937 73.8516C66.3869 72.3203 64.76 71.4248 62.1008 71.4316C59.4484 71.4248 57.8215 72.3203 57.8215 73.8516ZM59.5578 73.8516C59.5578 73.1406 60.4533 72.7852 62.1008 72.7852C63.7551 72.7852 64.6506 73.1406 64.6574 73.8516C64.6506 74.542 63.7551 74.9043 62.1008 74.9043C60.4533 74.9043 59.5578 74.542 59.5578 73.8516ZM62.2785 67.5215H64.6164V71.1035H66.3527V63.8164H64.6164V66.0996H62.2785V67.5215ZM82.977 65.6348H81.3637V63.8164H79.6137V71.7188H81.3637V69.7363H82.977V68.3145H81.3637V67.043H82.977V65.6348ZM71.4926 66.3594H78.8754V65.0059H76.059V63.748H74.3227V65.0059H71.4926V66.3594ZM72.0941 69.0254C72.0941 70.3652 73.3588 71.2539 75.184 71.2539C76.9955 71.2539 78.2465 70.3652 78.2465 69.0254C78.2465 67.6992 76.9955 66.79 75.184 66.7832C73.352 66.79 72.0941 67.6992 72.0941 69.0254ZM73.0922 74.0566C73.0785 75.4238 74.685 76.2646 77.3031 76.2578C79.8598 76.2646 81.4936 75.4238 81.5004 74.0566C81.4936 72.6553 79.8598 71.835 77.3031 71.8281C74.685 71.835 73.0785 72.6553 73.0922 74.0566ZM73.8031 69.0254C73.7963 68.4033 74.35 68.0615 75.184 68.0547C76.0248 68.0615 76.5922 68.4033 76.5922 69.0254C76.5922 69.6406 76.0248 69.9619 75.184 69.9551C74.35 69.9619 73.7963 69.6406 73.8031 69.0254ZM74.8148 74.0566C74.808 73.4346 75.6693 73.1611 77.3031 73.1543C78.8891 73.1611 79.7504 73.4346 79.7504 74.0566C79.7504 74.6377 78.8891 74.959 77.3031 74.959C75.6693 74.959 74.808 74.6377 74.8148 74.0566ZM88.2812 65.7715V64.4727H86.5312V65.6074C86.5176 67.3232 85.6289 68.9775 83.5508 69.668L84.4941 71.0352C85.916 70.5566 86.8799 69.5723 87.4199 68.3213C87.9531 69.4082 88.876 70.2559 90.1953 70.6934L91.125 69.3398C89.1562 68.7314 88.2744 67.2822 88.2812 65.7715ZM85.2734 73.8516C85.2666 75.376 86.9141 76.2646 89.5391 76.2578C92.1162 76.2646 93.7295 75.376 93.7363 73.8516C93.7295 72.3408 92.1162 71.4453 89.5391 71.4453C86.9141 71.4453 85.2666 72.3408 85.2734 73.8516ZM87.0234 73.8516C87.0098 73.1748 87.9053 72.8125 89.5391 72.8125C91.1523 72.8125 92.0137 73.1748 92.0137 73.8516C92.0137 74.5557 91.1523 74.8906 89.5391 74.8906C87.9053 74.8906 87.0098 74.5557 87.0234 73.8516ZM91.8633 71.1992H93.6133V68.1777H95.2949V66.7285H93.6133V63.8164H91.8633V71.1992Z" fill="#4C4E64" fill-opacity="0.68"/>
<path d="M52.7065 145.374C51.7348 134.683 54.8163 124.017 61.3399 115.491C67.8635 106.965 77.3529 101.202 87.9264 99.3441L89.5557 108.618C81.3084 110.067 73.9067 114.562 68.8182 121.213C63.7298 127.863 61.3262 136.183 62.0842 144.522L52.7065 145.374Z" fill="#6D788D"/>
<path d="M120.595 176.051C114.882 180.228 108.222 182.924 101.212 183.896C94.2015 184.868 87.0594 184.087 80.4251 181.622C73.7908 179.157 67.8713 175.085 63.1965 169.771C58.5217 164.457 55.2376 158.067 53.6381 151.173L62.8108 149.045C64.0584 154.422 66.62 159.407 70.2664 163.551C73.9127 167.696 78.5299 170.872 83.7047 172.795C88.8795 174.718 94.4503 175.327 99.9183 174.569C105.386 173.81 110.581 171.708 115.037 168.45L120.595 176.051Z" fill="#72E128"/>
<path d="M94.4067 98.7085C102.87 98.5254 111.198 100.856 118.336 105.406C125.475 109.956 131.104 116.52 134.512 124.269C137.92 132.018 138.954 140.604 137.482 148.94C136.011 157.277 132.1 164.99 126.245 171.104L119.444 164.591C124.011 159.822 127.061 153.806 128.209 147.304C129.357 140.801 128.551 134.104 125.893 128.06C123.235 122.016 118.844 116.895 113.276 113.347C107.707 109.798 101.212 107.98 94.6104 108.123L94.4067 98.7085Z" fill="#666CFF"/>
<path d="M85.4297 135.688H83.2109L80.4141 137.469V139.547L83.0078 137.922H83.0703V147H85.4297V135.688ZM92.4547 147.156C95.0328 147.156 96.8922 145.797 96.8922 143.953C96.8922 142.531 95.7828 141.375 94.4078 141.156V141.078C95.5953 140.844 96.4625 139.82 96.4703 138.578C96.4625 136.82 94.7672 135.531 92.4547 135.531C90.1422 135.531 88.4469 136.82 88.4547 138.578C88.4469 139.82 89.2906 140.844 90.5172 141.078V141.156C89.1109 141.375 88.0172 142.531 88.0172 143.953C88.0172 145.797 89.8688 147.156 92.4547 147.156ZM90.4703 143.719C90.4625 142.734 91.3063 142.023 92.4547 142.016C93.6031 142.023 94.4469 142.742 94.4391 143.719C94.4469 144.688 93.65 145.367 92.4547 145.359C91.2594 145.367 90.4625 144.688 90.4703 143.719ZM90.7516 138.812C90.7438 137.93 91.4391 137.312 92.4547 137.312C93.4625 137.312 94.1656 137.93 94.1734 138.812C94.1656 139.719 93.4469 140.352 92.4547 140.359C91.4547 140.352 90.7438 139.719 90.7516 138.812ZM101.62 141.344C103.292 141.344 104.222 140.125 104.23 138.328C104.222 136.539 103.316 135.297 101.62 135.297C99.9719 135.297 99.0109 136.539 99.0109 138.328C99.0109 140.109 99.925 141.344 101.62 141.344ZM100.605 138.328C100.612 137.367 100.956 136.695 101.62 136.688C102.323 136.688 102.628 137.352 102.636 138.328C102.628 139.305 102.292 139.945 101.62 139.953C100.964 139.945 100.612 139.305 100.605 138.328ZM100.636 147H102.386L110.167 135.688H108.417L100.636 147ZM106.652 144.359C106.652 146.141 107.566 147.375 109.245 147.375C110.933 147.375 111.862 146.156 111.87 144.359C111.862 142.57 110.956 141.336 109.245 141.328C107.612 141.336 106.652 142.57 106.652 144.359ZM108.245 144.359C108.253 143.398 108.589 142.727 109.245 142.734C109.956 142.719 110.269 143.383 110.277 144.359C110.269 145.336 109.933 145.984 109.245 145.984C108.605 145.984 108.253 145.336 108.245 144.359Z" fill="#4C4E64" fill-opacity="0.68"/>
</g>
</g>
<defs>
<filter id="filter0_d_129_8321" x="0.998047" y="0" width="188.666" height="220" filterUnits="userSpaceOnUse" color-interpolation-filters="sRGB">
<feFlood flood-opacity="0" result="BackgroundImageFix"/>
<feColorMatrix in="SourceAlpha" type="matrix" values="0 0 0 0 0 0 0 0 0 0 0 0 0 0 0 0 0 0 127 0" result="hardAlpha"/>
<feOffset dy="2"/>
<feGaussianBlur stdDeviation="5"/>
<feColorMatrix type="matrix" values="0 0 0 0 0.298039 0 0 0 0 0.305882 0 0 0 0 0.392157 0 0 0 0.22 0"/>
<feBlend mode="normal" in2="BackgroundImageFix" result="effect1_dropShadow_129_8321"/>
<feBlend mode="normal" in="SourceGraphic" in2="effect1_dropShadow_129_8321" result="shape"/>
</filter>
<clipPath id="clip0_129_8321">
<rect x="10.998" y="8" width="168.667" height="200" rx="10" fill="white"/>
</clipPath>
</defs>
</svg>
