<svg width="280" height="100" viewBox="0 0 280 100" fill="none" xmlns="http://www.w3.org/2000/svg">
<g filter="url(#filter0_d_129_8191)">
<rect x="10.625" y="8" width="258.453" height="80" rx="10" fill="white"/>
<rect x="30.625" y="28" width="40" height="40" rx="8" fill="#666CFF"/>
<rect x="30.625" y="28" width="40" height="40" rx="8" fill="white" fill-opacity="0.88"/>
<path d="M50.625 41.9C51.785 41.9 52.725 42.84 52.725 44C52.725 45.16 51.785 46.1 50.625 46.1C49.465 46.1 48.525 45.16 48.525 44C48.525 42.84 49.465 41.9 50.625 41.9ZM50.625 50.9C53.595 50.9 56.725 52.36 56.725 53V54.1H44.525V53C44.525 52.36 47.655 50.9 50.625 50.9ZM50.625 40C48.415 40 46.625 41.79 46.625 44C46.625 46.21 48.415 48 50.625 48C52.835 48 54.625 46.21 54.625 44C54.625 41.79 52.835 40 50.625 40ZM50.625 49C47.955 49 42.625 50.34 42.625 53V56H58.625V53C58.625 50.34 53.295 49 50.625 49Z" fill="#666CFF"/>
<path d="M93.0508 47.6953C96.2734 47.6953 98.5977 45.9961 98.5977 43.6914C98.5977 41.9141 97.2109 40.4688 95.4922 40.1953V40.0977C96.9766 39.8047 98.0605 38.5254 98.0703 36.9727C98.0605 34.7754 95.9414 33.1641 93.0508 33.1641C90.1602 33.1641 88.041 34.7754 88.0508 36.9727C88.041 38.5254 89.0957 39.8047 90.6289 40.0977V40.1953C88.8711 40.4688 87.5039 41.9141 87.5039 43.6914C87.5039 45.9961 89.8184 47.6953 93.0508 47.6953ZM90.5703 43.3984C90.5605 42.168 91.6152 41.2793 93.0508 41.2695C94.4863 41.2793 95.541 42.1777 95.5312 43.3984C95.541 44.6094 94.5449 45.459 93.0508 45.4492C91.5566 45.459 90.5605 44.6094 90.5703 43.3984ZM90.9219 37.2656C90.9121 36.1621 91.7812 35.3906 93.0508 35.3906C94.3105 35.3906 95.1895 36.1621 95.1992 37.2656C95.1895 38.3984 94.291 39.1895 93.0508 39.1992C91.8008 39.1895 90.9121 38.3984 90.9219 37.2656ZM103.513 46.0547H100.74L99.7633 51.6211H101.834L103.513 46.0547ZM106.007 45H112.882V47.5H115.675V45H117.472V42.6367H115.675V33.3594H111.984L106.007 42.6758V45ZM108.976 42.6367V42.5195L112.784 36.582H112.921V42.6367H108.976ZM124.731 47.6953C127.915 47.6953 130.083 45.6543 130.083 42.793C130.083 40.0781 128.149 38.1348 125.552 38.1445C124.311 38.1348 123.237 38.6426 122.72 39.3359H122.602L122.993 35.7617H129.282V33.3594H120.571L119.809 41.5039H122.466C122.886 40.7129 123.628 40.3125 124.692 40.3125C126.177 40.3223 127.241 41.3672 127.231 42.8711C127.241 44.3457 126.196 45.3809 124.731 45.3711C123.501 45.3809 122.495 44.6191 122.427 43.5156H119.575C119.624 45.957 121.782 47.6953 124.731 47.6953ZM137.537 47.6953C140.76 47.6953 143.084 45.9961 143.084 43.6914C143.084 41.9141 141.698 40.4688 139.979 40.1953V40.0977C141.463 39.8047 142.547 38.5254 142.557 36.9727C142.547 34.7754 140.428 33.1641 137.537 33.1641C134.647 33.1641 132.528 34.7754 132.537 36.9727C132.528 38.5254 133.582 39.8047 135.116 40.0977V40.1953C133.358 40.4688 131.991 41.9141 131.991 43.6914C131.991 45.9961 134.305 47.6953 137.537 47.6953ZM135.057 43.3984C135.047 42.168 136.102 41.2793 137.537 41.2695C138.973 41.2793 140.028 42.1777 140.018 43.3984C140.028 44.6094 139.032 45.459 137.537 45.4492C136.043 45.459 135.047 44.6094 135.057 43.3984ZM135.409 37.2656C135.399 36.1621 136.268 35.3906 137.537 35.3906C138.797 35.3906 139.676 36.1621 139.686 37.2656C139.676 38.3984 138.778 39.1895 137.537 39.1992C136.287 39.1895 135.399 38.3984 135.409 37.2656Z" fill="#4C4E64" fill-opacity="0.87"/>
<path d="M152.035 37.0898L156.625 41.6698L161.215 37.0898L162.625 38.4998L156.625 44.4998L150.625 38.4998L152.035 37.0898Z" fill="#FF4D49"/>
<path d="M172.48 45.1172C174.414 45.1172 175.809 44.0977 175.809 42.7148C175.809 41.6484 174.977 40.7812 173.945 40.6172V40.5586C174.836 40.3828 175.486 39.6152 175.492 38.6836C175.486 37.3652 174.215 36.3984 172.48 36.3984C170.746 36.3984 169.475 37.3652 169.48 38.6836C169.475 39.6152 170.107 40.3828 171.027 40.5586V40.6172C169.973 40.7812 169.152 41.6484 169.152 42.7148C169.152 44.0977 170.541 45.1172 172.48 45.1172ZM170.992 42.5391C170.986 41.8008 171.619 41.2676 172.48 41.2617C173.342 41.2676 173.975 41.8066 173.969 42.5391C173.975 43.2656 173.377 43.7754 172.48 43.7695C171.584 43.7754 170.986 43.2656 170.992 42.5391ZM171.203 38.8594C171.197 38.1973 171.719 37.7344 172.48 37.7344C173.236 37.7344 173.764 38.1973 173.77 38.8594C173.764 39.5391 173.225 40.0137 172.48 40.0195C171.73 40.0137 171.197 39.5391 171.203 38.8594ZM178.201 45.1055C178.722 45.1055 179.173 44.666 179.173 44.1211C179.173 43.582 178.722 43.1426 178.201 43.1484C177.65 43.1426 177.205 43.582 177.216 44.1211C177.205 44.666 177.65 45.1055 178.201 45.1055ZM183.558 36.5156H181.894L179.796 37.8516V39.4102L181.741 38.1914H181.788V45H183.558V36.5156ZM189.22 45.1172C191.341 45.1172 192.63 43.5469 192.63 40.7578C192.63 37.9863 191.335 36.3984 189.22 36.3984C187.104 36.3984 185.809 37.9863 185.809 40.7578C185.809 43.5352 187.093 45.1172 189.22 45.1172ZM187.614 40.7578C187.614 38.8184 188.241 37.8457 189.22 37.8398C190.198 37.8457 190.831 38.8184 190.825 40.7578C190.831 42.7148 190.204 43.6641 189.22 43.6641C188.235 43.6641 187.602 42.7148 187.614 40.7578ZM196.475 40.7578C197.729 40.7578 198.426 39.8438 198.432 38.4961C198.426 37.1543 197.746 36.2227 196.475 36.2227C195.239 36.2227 194.518 37.1543 194.518 38.4961C194.518 39.832 195.204 40.7578 196.475 40.7578ZM195.713 38.4961C195.719 37.7754 195.977 37.2715 196.475 37.2656C197.002 37.2656 197.231 37.7637 197.237 38.4961C197.231 39.2285 196.979 39.709 196.475 39.7148C195.983 39.709 195.719 39.2285 195.713 38.4961ZM195.737 45H197.049L202.885 36.5156H201.573L195.737 45ZM200.248 43.0195C200.248 44.3555 200.934 45.2812 202.194 45.2812C203.459 45.2812 204.157 44.3672 204.163 43.0195C204.157 41.6777 203.477 40.752 202.194 40.7461C200.969 40.752 200.248 41.6777 200.248 43.0195ZM201.444 43.0195C201.45 42.2988 201.702 41.7949 202.194 41.8008C202.727 41.7891 202.961 42.2871 202.967 43.0195C202.961 43.752 202.709 44.2383 202.194 44.2383C201.713 44.2383 201.45 43.752 201.444 43.0195Z" fill="#FF4D49"/>
<path d="M93 59.5352H87.1875V60.7305H89.3672C89.3496 62.0605 88.541 63.4316 86.7773 64L87.5742 65.1484C88.8105 64.7441 89.666 63.9121 90.1406 62.875C90.6035 63.8242 91.418 64.5859 92.6016 64.9727L93.3633 63.8125C91.6348 63.2617 90.8848 61.9785 90.8789 60.7305H93V59.5352ZM88.2188 66.9883H93.9023V69.5781H95.4023V65.8047H88.2188V66.9883ZM93.9023 65.3477H95.4023V62.7461H96.8438V61.5039H95.4023V58.9141H93.9023V65.3477ZM100.689 59.3711C99.0484 59.3594 97.8414 60.4316 97.8531 61.8906C97.8414 63.3789 99.0484 64.4453 100.689 64.4453C102.06 64.4453 103.156 63.6484 103.431 62.4766H105.212V64.6445H106.701V58.9141H105.212V61.2812H103.425C103.132 60.1387 102.048 59.3594 100.689 59.3711ZM99.2711 61.8906C99.2652 61.0938 99.8512 60.6074 100.689 60.6133C101.498 60.6074 102.078 61.0938 102.084 61.8906C102.078 62.6875 101.498 63.1914 100.689 63.1914C99.8512 63.1914 99.2652 62.6875 99.2711 61.8906ZM99.5875 69.4609H106.701V65.1133H105.212V66.1445H101.064V65.1133H99.5875V69.4609ZM101.064 68.2539V67.293H105.212V68.2539H101.064ZM120.614 58.9141H119.102V69.5781H120.614V58.9141ZM111.626 65.9102L111.766 67.1289C113.723 67.1172 116.19 67.0762 118.458 66.707L118.388 65.5938C117.936 65.6465 117.473 65.6934 117.005 65.7285V61.0938H117.954V59.8984H111.919V61.0938H112.856V65.8984C112.423 65.9043 112.013 65.9102 111.626 65.9102ZM114.309 65.8691V61.0938H115.552V65.8223C115.136 65.8457 114.72 65.8574 114.309 65.8691ZM132.182 67.1641H128.022V65.5586H131.303V64.3398H125.045V63.1445H131.057V59.6055H123.534V60.8008H129.58V61.9727H123.545V65.5586H126.534V67.1641H122.42V68.3945H132.182V67.1641ZM141.887 63.6836H135.84V60.8594H141.805V59.6641H134.34V64.8672H137.305V67.1406H133.191V68.3594H142.953V67.1406H138.793V64.8672H141.887V63.6836ZM155.589 58.9141H154.089V64.8789H155.589V62.4766H157.03V61.2461H155.589V58.9141ZM147.011 63.9297L147.609 65.1133C150.808 64.2695 152.595 62.3594 152.601 59.5352H147.538V60.7305H150.966C150.726 62.1484 149.407 63.332 147.011 63.9297ZM148.616 69.4492H155.589V65.2773H148.616V69.4492ZM150.105 68.2773V66.4844H154.112V68.2773H150.105ZM167.661 67.1055H163.466V64.6914H161.977V67.1055H157.899V68.3008H167.661V67.1055ZM158.134 63.7891L158.766 65.0312C160.63 64.6973 162.018 63.6836 162.716 62.3594C163.419 63.6895 164.813 64.6914 166.688 65.0312L167.321 63.7891C164.884 63.4141 163.507 61.8086 163.512 60.2852V59.5234H161.919V60.2852C161.907 61.791 160.548 63.4141 158.134 63.7891Z" fill="#4C4E64" fill-opacity="0.68"/>
</g>
<defs>
<filter id="filter0_d_129_8191" x="0.625" y="0" width="278.453" height="100" filterUnits="userSpaceOnUse" color-interpolation-filters="sRGB">
<feFlood flood-opacity="0" result="BackgroundImageFix"/>
<feColorMatrix in="SourceAlpha" type="matrix" values="0 0 0 0 0 0 0 0 0 0 0 0 0 0 0 0 0 0 127 0" result="hardAlpha"/>
<feOffset dy="2"/>
<feGaussianBlur stdDeviation="5"/>
<feColorMatrix type="matrix" values="0 0 0 0 0.298039 0 0 0 0 0.305882 0 0 0 0 0.392157 0 0 0 0.22 0"/>
<feBlend mode="normal" in2="BackgroundImageFix" result="effect1_dropShadow_129_8191"/>
<feBlend mode="normal" in="SourceGraphic" in2="effect1_dropShadow_129_8191" result="shape"/>
</filter>
</defs>
</svg>
